<svg version="1.1" width="124" height="143"
	xmlns="http://www.w3.org/2000/svg">
	<g stroke="#000" transform="translate(0 13) scale(2.226)">
		<polygon stroke-width="2px" fill="#bf5a3b" points="19.66 50.43 35.52 50.43 54.5 24.37 46.71 1 8.47 1 1.1 23.66 19.66 50.43"/>
		<path fill="#000" d="M50.18,23.78l-9,9.11-9.13-6.75,2.12-8.44,6.54.56.33,3.69-1.32-1.98-2.75,1.54.32,3.36,3.87.96,3.03-3.34-2.53-9.15-9.46,3.66-4.26,1.52-4.67-1.52-9.46-3.66-2.53,9.15,3.03,3.34,3.87-.96.32-3.36-2.75-1.54-1.32,1.98.33-3.69,6.54-.56,2.12,8.44-9.13,6.75-9-9.11L11.64,4.35l16.09,5.03,16.09-5.03,6.36,19.43ZM32.06,31.6l-4.33-7.2-4.33,7.2,4.33-1.39,4.33,1.39ZM35.31,37.05l-1.27,2.38-1.67.79.75-4.61-1.61,3.26-3.29.53-.44-4.44-.27,4.44-3.63-.53-1.61-3.26.75,4.61-1.77-.79-1.18-2.38-.31,2.19-1.25.86,2.72,6.55.49-2.76,1.32-.79,1.03,3.56.62-2.34,2.76.25.32,2.09.49-2.09,2.42-.25.62,2.34,1.03-3.56,1.23.79.58,2.76,2.72-6.55-1.25-.86-.31-2.19Z"/>
	</g>
</svg>