<svg version="1.1" width="124" height="143"
	xmlns="http://www.w3.org/2000/svg">
	<polygon stroke="#e5decf" fill="#528750" stroke-width="5px" points="121.29 37.18 61.9 2.89 2.5 37.18 2.5 105.77 61.9 140.06 121.29 105.77 121.29 37.18" />
	<g fill="#f1eee6">
		<path d="M100.24,37.89l-37.92,7.94-37.92-7.94-5.49-1.15,1.76,5.32,5.55,16.78v23.29l.99.95,19.8,19.13,3.19-3.43c-1.39-.31-2.75-.92-3.95-1.78l-2.13-2.05c-.21-.27-.4-.55-.58-.85-.43-.71-.8-1.48-1.03-2.32-.26-.85-.3-1.76-.31-2.57.02-1.65.38-3.15.74-4.58.77-2.84,1.7-5.47,2.52-8.1.71-2.15,1.43-4.26,2.32-6.4-.99.26-2.33.51-3.79.51s-2.93-.24-4.34-.93c-4.32-2.13-5.82-7.66-5.88-7.9-.1-.39.1-.79.47-.95.23-.09,5.53-2.26,9.84-.14,4.32,2.13,5.82,7.66,5.88,7.9.03.11.03.21.01.32,0,0,0,0,0,0,.37,2.96-.09,5.9-.84,8.68-.79,2.78-1.81,5.45-2.64,8.03-.41,1.28-.72,2.55-.86,3.72-.03.6-.07,1.11.04,1.64.11.53.28,1.08.52,1.61.99,2.14,3.02,3.88,5.5,4.76h.01s.01.01.02.02c.02,0,.03,0,.05,0,2.33.76,4.35.53,6.02-.67,2.53-1.84,3.56-5.41,3.56-6.6v-1.61l-8.98-7.15c-.23-.18-.3-.46-.26-.74h-.03s2.11-14.7,2.11-14.7l-18.47-13.66-6.26,6.04h0s-5.6-16.93-5.6-16.93l1.43,1.17,30.64,22.66-2.12,14.73h16.71l-2.12-14.73,30.64-22.66,1.86-1.52-6.03,17.28h0s-6.26-6.04-6.26-6.04l-18.47,13.66,2.11,14.7h-.03c.04.28-.04.57-.26.75l-8.98,7.15v1.6s0,0,0,0c0,1.18,1.02,4.76,3.56,6.6,1.66,1.21,3.69,1.43,6.02.67.02,0,.03,0,.05,0,0,0,.01,0,.02-.01h.01c2.48-.89,4.51-2.62,5.5-4.76.24-.53.41-1.08.52-1.61.11-.53.07-1.04.04-1.64-.14-1.17-.45-2.44-.86-3.72-.83-2.57-1.86-5.25-2.64-8.03-.74-2.79-1.2-5.72-.84-8.68,0,0,0,0,0,0-.01-.1-.01-.21.01-.32.06-.23,1.56-5.76,5.88-7.9,4.32-2.13,9.62.04,9.84.14.37.16.57.56.47.95-.06.23-1.56,5.76-5.88,7.9-1.41.7-2.93.93-4.34.93s-2.79-.25-3.79-.51c.89,2.14,1.61,4.25,2.32,6.4.82,2.64,1.75,5.26,2.52,8.1.36,1.43.72,2.93.74,4.58-.01.81-.06,1.72-.31,2.57-.23.84-.6,1.61-1.03,2.32-.18.3-.38.58-.59.86l-2.07,2c-1.32.96-2.83,1.61-4.38,1.89l1.14,1.23h0s2.2,2.37,2.2,2.37l20.04-19.36.99-.95v-23.26l5.85-16.76,1.88-5.39-5.59,1.17ZM40.08,73.28c1.33,0,2.42,1.04,2.42,2.32s-1.08,2.32-2.42,2.32-2.42-1.04-2.42-2.32,1.08-2.32,2.42-2.32ZM37.87,81.51c0,1.28-1.08,2.32-2.42,2.32s-2.42-1.04-2.42-2.32,1.08-2.32,2.42-2.32,2.42,1.04,2.42,2.32ZM32.12,70.87c1.41,0,2.55,1.1,2.55,2.45s-1.14,2.45-2.55,2.45-2.55-1.1-2.55-2.45,1.14-2.45,2.55-2.45ZM86.56,82.93c-1.33,0-2.42-1.04-2.42-2.32s1.08-2.32,2.42-2.32,2.42,1.04,2.42,2.32-1.08,2.32-2.42,2.32ZM89.25,74.58c-1.63,0-2.96-1.27-2.96-2.83s1.33-2.83,2.96-2.83,2.96,1.27,2.96,2.83-1.33,2.83-2.96,2.83ZM41.36,48.13c-1.63,0-2.96-1.27-2.96-2.83,0-.4.09-.78.25-1.13l5.66,1.19c-.03,1.54-1.34,2.78-2.95,2.78ZM48.04,54.07c-1.5,0-2.72-1.17-2.72-2.61s1.22-2.61,2.72-2.61,2.72,1.17,2.72,2.61-1.22,2.61-2.72,2.61ZM58.82,61.27c-1.2,0-2.18-.94-2.18-2.1s.98-2.1,2.18-2.1,2.18.94,2.18,2.1-.98,2.1-2.18,2.1ZM58.06,53.21c-2.05,0-3.72-1.59-3.72-3.55,0-.77.27-1.48.71-2.06l6.66,1.39c.04.22.07.44.07.67,0,1.96-1.67,3.55-3.72,3.55ZM69.61,57.38c-1.63,0-2.96-1.27-2.96-2.83s1.33-2.83,2.96-2.83,2.96,1.27,2.96,2.83-1.33,2.83-2.96,2.83ZM80.65,50.28c-3.11.95-6.34-.6-7.33-3.47l11.63-2.43c.15,2.58-1.57,5.06-4.3,5.9Z" />
		<path d="M71.89,99.24c-.66.14-1.31.24-1.93.24-1.61,0-3.08-.48-4.38-1.43-1.64-1.19-2.74-2.99-3.42-4.64-.67,1.65-1.78,3.45-3.42,4.64-1.31.95-2.78,1.43-4.38,1.43-.73,0-1.5-.13-2.29-.33l-1.7,1.83h0s-2.2,2.36-2.2,2.36h0s0,0,0,0h0l11.75,11.35,2.24,2.17,2.24-2.17,11.51-11.12-4.02-4.33Z" />
	</g>
</svg>