<svg version="1.1" xmlns="http://www.w3.org/2000/svg" viewBox="0 0 26.05 24.93">
	<path fill="#000" d="M18.21,9.66s0,.09,0,.13c2.37-1.02,4.32-2.5,5.49-3.51-1.94-1.67-6.05-4.67-10.67-4.67S4.29,4.61,2.36,6.28c1.16,1.01,3.12,2.49,5.49,3.51,0-.04,0-.09,0-.13,0-2.86,2.32-5.18,5.18-5.18s5.18,2.32,5.18,5.18Z"/>
	<path fill="#fff" d="M16.61,12.06s.05-.01.08-.02c.18-.05.35-.1.52-.16.01,0,.02,0,.03-.01.18-.06.36-.12.54-.18,0,0,0,0,0,0,4.83-1.73,8.25-5.41,8.25-5.41,0,0-5.83-6.28-13.02-6.28S0,6.28,0,6.28c0,0,3.42,3.68,8.25,5.41h0s0,0,0,0c.18.06.36.13.54.18.01,0,.02,0,.04.01.17.05.35.11.52.16.03,0,.05.01.08.02.16.04.33.09.49.13.05.01.09.02.14.03.15.03.3.07.45.1.02,0,.05,0,.07.01l-3.09,6.68,4.93-1.24-4.03,7.17,9.94-11.02-5.14,1.37,3.29-3.18s.09-.02.13-.03ZM13.02,4.47c-2.86,0-5.18,2.32-5.18,5.18,0,.04,0,.09,0,.13-2.37-1.02-4.32-2.5-5.49-3.51,1.94-1.67,6.05-4.67,10.67-4.67s8.73,2.99,10.67,4.67c-1.16,1.01-3.12,2.49-5.49,3.51,0-.04,0-.09,0-.13,0-2.86-2.32-5.18-5.18-5.18Z"/>
</svg>