<svg xmlns="http://www.w3.org/2000/svg">
	<defs>
		<linearGradient id="nodecg-gradient" x1="0" x2="0" y1="0" y2="1">
			<stop offset="0%" stop-color="#4be1bf" />
			<stop offset="100%" stop-color="#08c4c0" />
		</linearGradient>
	</defs>
	<path d="M42.7 0h54.89a10 10 0 0 1 8.8 5.02l27.36 47.53a10 10 0 0 1 0 9.90l-27.36 47.53a10 10 0 0 1 -8.8 5.02h-54.89a10 10 0 0 1 -8.8 -5.02
	l-27.36 -47.53a10 10 0 0 1 0 -9.90l27.36 -47.53a10 10 0 0 1 8.8 -5.02z
	" stroke-width="0.0px" fill="url(#nodecg-gradient)" />
	<path transform="translate(17.4 10)" d="M19.7 23.96l12.28 -14.36a24.85 24.85 0 0 1 38.03 0l12.28 14.36a2.5 2.5 0 0 1 0 3.28l-12.28 14.36a24.85 24.85 0 0 1 -38.02 0l-12.28 -14.36a2.5 2.5 0 0 1 0 -3.28z
	M35 25.6a16 16 0 1 1 0 .01z
	M55.45 18.45a8.4 8.4 1 1 0 3.95 7.35a.7 .7 0 0 0 -0.7 -0.6h-6.17a.7 .7 0 0 1 -0.65 -1.09l3.76 -4.64a.7 .7 0 0 0 -0.19 -1.02z
	M17.22 53.1h14.73a12 12 0 0 1 9.6 4.77l8.27 10.25l8.27 -10.25a12 12 0 0 1 9.6 -4.77h16.01a1.2 1.2 0 0 1 .99 1.87l-8.27 10.26a12 12 0 0 1 -9.6 4.77h-15.48l11.21 13.9a3 3 0 0 1 0 3.8l-9.24 11.46a2 2 0 0 1 -3.14 0l-16.01 -19.84l2.14 -2.65a1.5 1.5 0 0 0 -1.17 -2.42h-5.06l-14.4 -17.84a2 2 0 0 1 1.55 -3.31z" stroke-width="0px" fill="#403e80" fill-rule="evenodd"/>
</svg>