<svg version="1.1" width="124" height="143"
	xmlns="http://www.w3.org/2000/svg">
	<polygon stroke="#e5decf" fill="#c76ea6" stroke-width="5px" points="121.29 37.18 61.9 2.89 2.5 37.18 2.5 105.77 61.9 140.06 121.29 105.77 121.29 37.18" />
	<g fill="#f1eee6">
		<path d="M55.1,64.09c.67,0,1.29.2,1.81.55-2.41-3.57-5.22-5.23-6.65-5.87-1.29,2.08-2.04,4.53-2.04,7.15,0,7.24,5.66,13.17,12.78,13.63-.11-5.34-1.18-9.4-2.65-12.43,0,.08.03.16.03.25,0,1.81-1.47,3.28-3.27,3.28s-3.28-1.47-3.28-3.28,1.47-3.28,3.28-3.28Z" />
		<path d="M49.57,103.11h3.91c-.86-1.61-1.74-3.36-2.59-5.25-14.39-4.66-24.84-18.13-24.84-34.05,0-17.65,12.85-32.31,29.68-35.25v-.08c-20.29,2.99-35.91,20.51-35.91,41.62,0,16.33,9.35,30.5,22.98,37.47,1.13-2.63,3.74-4.47,6.78-4.47Z" />
		<path d="M76.72,61.88c.35,1.29.56,2.64.56,4.04,0,8.48-6.9,15.38-15.38,15.38s-15.38-6.9-15.38-15.38c0-1.39.2-2.74.55-4.02-.76,1.87-1.19,3.9-1.19,6.04,0,23.43,12.96,41.19,16.02,45.06,3.07-3.87,16.02-21.63,16.02-45.06,0-2.14-.43-4.18-1.2-6.05ZM52.37,86.84c-.09.03-.18.04-.26.04-.36,0-.7-.23-.81-.59l-1.99-6.16c-.15-.45.1-.93.55-1.08.46-.14.93.1,1.08.55l1.99,6.16c.15.45-.1.93-.55,1.08ZM58.6,101.86c-.11.05-.22.07-.33.07-.33,0-.65-.2-.79-.52l-2.17-5.16c-.18-.43.02-.94.46-1.12.44-.18.94.02,1.12.46l2.17,5.16c.18.43-.02.94-.46,1.12ZM59.19,93.26c-.1.04-.2.05-.29.05-.35,0-.68-.22-.8-.56l-2.17-5.98c-.16-.44.07-.93.51-1.09.45-.16.93.07,1.09.51l2.17,5.98c.16.44-.07.93-.51,1.09ZM63.12,95.17l.09-6.61c0-.47.38-.9.87-.84.47,0,.85.39.84.87l-.09,6.61c0,.47-.39.84-.85.84h-.01c-.47,0-.85-.39-.84-.87ZM66.67,100.03l-1.63,4.08c-.13.33-.45.54-.79.54-.11,0-.21-.02-.32-.06-.44-.18-.65-.67-.48-1.11l1.63-4.08c.18-.44.67-.65,1.11-.48.44.18.65.67.48,1.11ZM68.55,86.39c0,.47-.38.85-.85.85s-.85-.38-.85-.85v-3.62c0-.47.38-.85.85-.85s.85.38.85.85v3.62ZM73.05,84.62l-1.45,5.53c-.1.38-.45.64-.83.64-.07,0-.14,0-.22-.03-.46-.12-.73-.59-.61-1.04l1.45-5.53c.12-.46.58-.73,1.04-.61.46.12.73.59.61,1.04Z" />
		<path d="M47.16,33.08c-11.45,5.51-19.39,17.2-19.39,30.74,0,14.62,9.26,27.07,22.21,31.92-2.41-5.77-4.49-12.61-5.37-20.22-5.72-4.9-9.39-12.12-9.39-20.22,0-9.27,4.75-17.44,11.95-22.22Z" />
		<path d="M62.78,79.55c7.12-.46,12.78-6.39,12.78-13.63,0-2.62-.75-5.07-2.04-7.15-1.43.65-4.25,2.3-6.65,5.87.52-.35,1.14-.55,1.82-.55,1.81,0,3.28,1.47,3.28,3.28s-1.47,3.28-3.28,3.28-3.27-1.47-3.27-3.28c0-.09.02-.17.03-.25-1.47,3.03-2.54,7.09-2.66,12.43Z" />
		<path d="M61.89,52.25c-4.3,0-8.13,2-10.64,5.1,2.72,1.32,8.49,5.22,10.64,14.98,2.15-9.75,7.91-13.66,10.64-14.98-2.51-3.11-6.34-5.1-10.64-5.1Z" />
		<path d="M74.21,104.82h-4.86c-1.75,3.08-3.39,5.53-4.63,7.25,5.22-.35,10.19-1.65,14.73-3.74-.85-2.06-2.88-3.51-5.24-3.51Z" />
		<path d="M49.57,104.82c-2.36,0-4.39,1.45-5.24,3.51,4.53,2.09,9.5,3.39,14.73,3.73-1.24-1.72-2.88-4.16-4.63-7.25h-4.86Z" />
		<path d="M79.18,75.52c-.87,7.61-2.96,14.45-5.37,20.22,12.95-4.85,22.21-17.3,22.21-31.92,0-13.53-7.94-25.22-19.39-30.73,7.19,4.78,11.94,12.95,11.94,22.22,0,8.1-3.67,15.32-9.39,20.22Z" />
		<path d="M68.05,28.49v.08c16.83,2.94,29.67,17.59,29.67,35.24,0,15.92-10.45,29.39-24.84,34.05-.85,1.88-1.72,3.64-2.59,5.25h3.91c3.03,0,5.64,1.84,6.78,4.47,13.63-6.97,22.98-21.15,22.98-37.47,0-21.11-15.62-38.63-35.91-41.62Z" />
	</g>
</svg>