<svg version="1.1" width="124" height="143"
	xmlns="http://www.w3.org/2000/svg">
	<polygon stroke="#e5decf" fill="#cd3443" stroke-width="5px" points="121.29 37.18 61.9 2.89 2.5 37.18 2.5 105.77 61.9 140.06 121.29 105.77 121.29 37.18" />
	<g fill="#f1eee6">
		<path d="M52.65,70.71c-2-.77-5.51-1.72-8.64-.57-3.14,1.16-5.18,4.17-6.2,6.05l14.84-5.48Z" />
		<path d="M96.36,59.61l-28.55-7.22,38.71-12.61h-58.61c-3.21,0-6.38,1.07-8.93,3.01-.74.57-1.4,1.21-2.01,1.88l-17.33-4.36v40.05h.75c19.13,0,29.14,19.34,30.02,29.2l.04.47.44.17c3.77,1.41,16.73,6.94,16.86,7l.65.28,28.86-57.65-.91-.23h0ZM74.6,77.89l-4.76.02h-.03c-2.28,0-4.29-1.45-5-3.62l-1.6-4.86,11.39,8.46ZM40.79,45.18c2.03-1.55,4.56-2.4,7.11-2.4h39.68l-22.33,7.27c-8.24,2.25-14.07,8.62-14.17,15.49,0,.31-.21.57-.5.61-1.41.2-3.61.31-6.1-.38-4.25-1.17-7.29-4.5-8.13-8.89-.86-4.48.84-8.97,4.44-11.71ZM30.87,58.95c-.15.2-.37.3-.6.3-.16,0-.32-.05-.45-.15l-3.95-2.96c-.33-.25-.4-.72-.15-1.05.25-.33.72-.4,1.05-.15l3.95,2.96c.33.25.4.72.15,1.05ZM23.37,46.27c.25-.33.72-.4,1.05-.15l4.87,3.65c.33.25.4.72.15,1.05-.15.2-.37.3-.6.3-.16,0-.32-.05-.45-.15l-4.87-3.65c-.33-.25-.4-.72-.15-1.05ZM23.18,63.64c.25-.33.72-.4,1.05-.15l6.74,5.06c.33.25.4.72.15,1.05-.15.2-.37.3-.6.3-.16,0-.32-.05-.45-.15l-6.74-5.06c-.33-.25-.4-.72-.15-1.05ZM31.36,77.48c-.15.2-.37.3-.6.3-.16,0-.32-.05-.45-.15l-4.48-3.36c-.33-.25-.4-.72-.15-1.05.25-.33.72-.4,1.05-.15l4.48,3.36c.33.25.4.72.15,1.05ZM35.08,68.19l-2.96-2.22c-.33-.25-.4-.72-.15-1.05.25-.33.72-.4,1.05-.15l2.96,2.22c.33.25.4.72.15,1.05-.15.2-.37.3-.6.3-.16,0-.32-.05-.45-.15ZM47.49,88.9c-.16,0-.32-.05-.45-.15l-6.08-4.56c-.33-.25-.4-.72-.15-1.05.25-.33.72-.4,1.05-.15l6.08,4.56c.33.25.4.72.15,1.05-.15.2-.37.3-.6.3ZM48.43,94.33c-.33-.25-.4-.72-.15-1.05.25-.33.72-.4,1.05-.15l4.83,3.62c.33.25.4.72.15,1.05-.15.2-.37.3-.6.3-.16,0-.32-.05-.45-.15l-4.83-3.62ZM49.86,83.87c.25-.33.72-.4,1.05-.15l4.52,3.39c.33.25.4.72.15,1.05-.15.2-.37.3-.6.3-.16,0-.32-.05-.45-.15l-4.52-3.39c-.33-.25-.4-.72-.15-1.05ZM57.02,106.05c-.15.2-.37.3-.6.3-.16,0-.32-.05-.45-.15l-4.06-3.05c-.33-.25-.4-.72-.15-1.05.25-.33.72-.4,1.05-.15l4.06,3.05c.33.25.4.72.15,1.05ZM68.17,112.08c-.3.22-.64.33-.99.33-.17,0-.35-.03-.52-.08-1.16-.36-2.01-1.84-1.97-3.46.02-.99.38-1.82,1-2.26.45-.32.98-.41,1.51-.25,1.16.36,2.01,1.84,1.97,3.46-.02.99-.38,1.82-1,2.26ZM77.66,95.63l-14.58,1.36c-.12,6.82-1.64,12.35-2.72,15.43-.46-.19-.92-.39-1.38-.58,2.16-6.24,6.2-22.83-4.22-39.48-1.02,2.02-3.36,5.79-7.26,7.23-1.24.46-2.52.64-3.75.64-4.04,0-7.58-1.91-7.77-2.01-.33-.18-.47-.57-.34-.92.1-.27,2.54-6.58,7.86-8.54,5.31-1.96,11.27,1.24,11.52,1.38.11.06.19.15.26.25h0c5.86,8.79,7.71,17.63,7.81,25.11l15.37-1.43-.79,1.58Z" />
		<path d="M38.34,77.61c2,.77,5.51,1.72,8.64.56,3.14-1.16,5.18-4.17,6.2-6.05l-14.84,5.48Z" />
	</g>
</svg>