<svg version="1.1" width="124" height="143"
	xmlns="http://www.w3.org/2000/svg">
	<g stroke="#e7e1d4" transform="translate(0 9.6) scale(2.414)">
		<circle stroke-width="1.82px" stroke="#000" fill="#b6996d" cx="25.64" cy="25.64" r="24.73"/>
		<path fill="#e7e1d4" stroke-width="0px" d="M25.65,40.14c8.08,0,14.63-6.55,14.63-14.63s-6.55-14.63-14.63-14.63-14.63,6.55-14.63,14.63c0,.81.08,1.59.21,2.36,2.88-1.39,6.38-1.82,8-.46,1.16,0,7.51.58,7.51.58l-.19,2.76-3.92.51,3.32.99,1.92-2.9,1-1.32,1.16.25-.65,1.46,1.05-1.31,1.4-1.76,1.25.07-1.87,3.53,1.63-1.63,1.57-1.92,1.29.25-2.21,3.59-.57.64.85-.6,2.69-2.87,1.57.14-4.43,6.41-6.95,3.17s-9.35-3.62-10.32-3.7c-.37-.03-1.11.41-1.75,1.26,2.68,3.13,6.65,5.12,11.1,5.12ZM27.27,20.95l-1.63,4.72-1.63-4.72-4.72-1.63,4.72-1.63,1.63-4.72,1.63,4.72,4.72,1.63-4.72,1.63ZM25.65,4.63C14.13,4.63,4.76,14,4.76,25.51s9.37,20.88,20.88,20.88,20.88-9.37,20.88-20.88S37.17,4.63,25.65,4.63ZM25.65,44.98c-4.48,0-8.61-1.53-11.9-4.08-.83-2.65-.11-4.67.8-5.87-1.71-1.99-2.88-4.44-3.32-7.14-1.85.89-3.43,2.17-4.1,3.62-.61-1.89-.95-3.9-.95-5.98C6.19,14.78,14.92,6.05,25.65,6.05s19.46,8.73,19.46,19.46-8.73,19.46-19.46,19.46ZM17.78,9.26l.18,2.98-2.49-1.64c.73-.5,1.5-.95,2.31-1.34ZM25.65,7.45c.45,0,.89.02,1.33.05l-1.33,2.67-1.33-2.67c.44-.03.89-.05,1.34-.05ZM10.7,15.38l1.64,2.48-2.97-.18c.39-.8.83-1.57,1.33-2.31ZM7.64,24.23l2.64,1.32-2.64,1.32c-.03-.45-.06-.9-.06-1.35s.02-.86.05-1.29ZM15.52,40.47l2.45-1.62-.18,2.93c-.79-.38-1.55-.82-2.27-1.31ZM38.96,33.22l2.94.18c-.39.79-.83,1.55-1.32,2.28l-1.62-2.45ZM41.92,17.67l-2.97.18,1.64-2.48c.5.73.94,1.5,1.33,2.3ZM33.51,9.25c.81.39,1.58.84,2.31,1.34l-2.49,1.64.18-2.98ZM43.71,25.51c0,.45-.02.9-.05,1.34l-2.64-1.32,2.64-1.32c.03.43.05.86.05,1.3ZM33.34,38.84l2.45,1.62c-.72.49-1.48.93-2.27,1.31l-.18-2.93ZM25.66,40.91l1.31,2.61c-.43.03-.87.05-1.32.05s-.87-.02-1.3-.05l1.31-2.62Z"/>
	</g>
</svg>